<svg width="1218" height="816" viewBox="0 0 1218 816" fill="none" xmlns="http://www.w3.org/2000/svg">
<g clip-path="url(#clip0_121_267)">
<g clip-path="url(#clip1_121_267)">
<path d="M670 28.625H696.875L715 29.875L734.375 32.375L753.75 36.125L773.125 41.125L795.625 48.625L810.625 54.875L828.125 63L842.5 71.125L855 78.625L865 85.5L876.875 94.25L887.5 103L894.375 109.25L899.375 113.625L916.875 131.125L921.25 136.125L928.125 144.25L936.25 154.875L944.375 166.125L953.125 179.875L961.25 194.25L966.25 204.25L973.125 218.625L981.25 239.875L986.875 258L991.25 275.5L995 296.125L997.5 319.25L998.125 329.875V356.75L996.875 374.25L994.375 393.625L990 416.125L983.75 438.625L978.125 454.875L971.875 469.875L963.75 487.375L955.625 501.75L948.125 514.25L938.125 528.625L931.875 536.75L923.75 546.75L917.5 553.625L913.125 558.625L895.625 576.125L890.625 580.5L882.5 587.375L871.875 595.5L860.625 603.625L846.875 612.375L832.5 620.5L822.5 625.5L808.125 632.375L791.875 638.625L773.125 644.875L753.75 649.875L734.375 653.625L715 656.125L696.875 657.375H369.375V329.875L370.625 311.75L373.125 292.375L377.5 269.875L383.75 247.375L389.375 231.125L395.625 216.125L403.75 198.625L411.875 184.25L419.375 171.75L426.25 161.75L435 149.875L443.75 139.25L450 132.375L454.375 127.375L471.875 109.875L476.875 105.5L485 98.625L495.625 90.5L506.875 82.375L520.625 73.625L535 65.5L545.625 59.875L562.5 52.375L580.625 45.5L598.75 39.875L616.25 35.5L636.875 31.75L659.375 29.25L670 28.625ZM669.375 82.375L649.375 84.25L630.625 87.375L612.5 91.75L590 99.25L573.75 106.125L557.5 114.25L546.875 120.5L531.875 130.5L521.25 138.625L514.375 144.25L506.875 151.125L501.875 155.5L492.5 164.875L488.125 169.875L480.625 178.625L471.25 191.125L462.5 204.25L456.875 213.625L449.375 228L443.125 241.125L436.875 258L431.875 274.25L427.5 293L425 308.625L423.125 328.625V357.375L425 377.375L428.125 396.125L432.5 414.25L440 436.75L446.875 453L455.625 470.5L464.375 484.875L471.25 494.875L479.375 505.5L485 512.375L491.875 519.875L496.25 524.875L505.625 534.25L510.625 538.625L519.375 546.125L531.875 555.5L545 564.25L554.375 569.875L571.25 578.625L585 584.875L602.5 591.125L619.375 596.125L640.625 600.5L660.625 603L669.375 603.625H698.125L718.75 601.75L736.875 598.625L755 594.25L777.5 586.75L792.5 580.5L811.25 571.125L825.625 562.375L835.625 555.5L846.25 547.375L853.125 541.75L860.625 534.875L865.625 530.5L875 521.125L879.375 516.125L886.875 507.375L896.25 494.875L905 481.75L910.625 472.375L918.125 458L924.375 444.875L930.625 428L935.625 411.75L940 393L942.5 378L944.375 357.375V328.625L942.5 308L939.375 289.875L935.625 274.25L930.625 258L924.375 241.125L914.375 220.5L907.5 208L896.25 191.125L888.125 180.5L882.5 173.625L875.625 166.125L871.25 161.125L861.875 151.75L856.875 147.375L848.125 139.875L835.625 130.5L820.625 120.5L807.5 113L791.25 104.875L774.375 98L755 91.75L736.875 87.375L718.125 84.25L698.125 82.375H669.375Z" fill="#171641"/>
<path d="M669.375 34.25H700.625L716.875 35.5L736.25 38L757.5 42.375L778.125 48L796.25 54.25L813.75 61.75L829.375 69.25L843.75 77.375L857.5 86.125L868.75 94.25L876.875 100.5L883.75 106.125L892.5 113.625L902.5 123L903.125 125.5L874.375 154.25L871.875 153.625L864.375 146.125L857.5 140.5L851.875 135.5L839.375 126.125L828.125 118.625L815.625 111.125L801.25 103.625L787.5 97.375L772.5 91.75L756.875 86.75L738.125 82.375L719.375 79.25L707.5 78L696.875 77.375H673.125L656.25 78.625L638.125 81.125L620.625 84.875L605 89.25L588.75 94.875L571.25 102.375L556.25 109.875L543.75 117.375L532.5 124.875L520.625 133.625L513.75 139.25L507.5 144.875L502.5 149.25L487.5 164.25L481.875 171.125L477.5 176.125L468.125 188.625L460.625 199.875L453.125 212.375L445.625 226.75L439.375 240.5L433.125 257.375L428.125 273.625L424.375 289.875L421.25 308.625L420 320.5L419.375 330.5V355.5L420.625 371.75L423.125 389.875L426.875 407.375L431.875 424.875L436.875 439.25L443.75 455.5L451.875 471.75L459.375 484.25L466.875 495.5L475.625 507.375L482.5 515.5L490 524.25L496.25 530.5L495.625 533L377.5 651.125H376.25V327.375L378.125 304.875L381.25 284.875L385.625 265.5L390 249.875L396.25 231.75L403.125 215.5L411.875 197.375L419.375 184.25L426.875 172.375L433.75 162.375L443.75 149.25L451.25 140.5L462.5 128L474.375 116.125L479.375 111.75L488.75 103.625L499.375 95.5L508.75 88.625L521.25 80.5L531.875 74.25L546.875 66.125L563.125 58.625L580.625 51.75L600 45.5L618.125 41.125L633.75 38L653.125 35.5L669.375 34.25Z" fill="#EC115E"/>
<path d="M720 148H743.125L759.375 150.5L772.5 154.25L785 159.25L798.125 166.125L808.125 173L816.25 179.875L823.75 186.75L829.375 193L836.875 203L842.5 212.375L847.5 221.75L852.5 234.875L855.625 245.5L858.125 259.875L858.75 266.125V283.625L856.875 298L853.75 311.125L849.375 323.625L843.75 335.5L836.875 346.75L830.625 354.875L823.125 363.625L818.125 368.625L811.25 374.25L803.125 380.5L791.25 387.375L778.125 393.625L764.375 398L749.375 401.125L743.75 401.75H720L719.375 399.875L722.5 382.375L721.875 379.875L718.125 377.375L715 373.625L723.75 378L724.375 372.375L728.75 353.625L730 350.5L728.125 349.875L730 349.25L736.875 326.75V324.25H738.125L739.375 318L745 296.125L748.75 278.625L751.25 272.375L755.625 266.75L759.375 264.875H765L770 267.375L775 272.375L774.375 268.625L778.75 272.375L784.375 281.125L787.5 289.25L788.75 298L790 293.625L791.25 295.5L791.875 298V304.25L791.25 308.625L795 304.25L798.75 296.75L800.625 289.875V279.875L798.125 273L795 268L798.125 268.625L796.875 266.125L790.625 260.5L780.625 255.5L773.125 253.625L766.875 252.375L769.375 250.5L771.875 249.875H777.5L784.375 252.375L780 248.625V247.375H787.5L795.625 249.875L807.5 256.125L810 257.375L803.75 251.125L805 250.5L814.375 256.125L823.125 263.625L822.5 261.125L818.75 254.25L813.75 248L810 243.625L802.5 238L794.375 234.25L786.25 233L788.125 231.125L790 229.875L783.125 228.625H777.5L771.25 230.5L764.375 235.5L762.5 236.75L763.75 233.625L767.5 228L772.5 223.625L778.125 221.125L776.875 219.875L772.5 219.25L773.125 216.75L776.875 211.75L781.875 207.375L787.5 205.5L784.375 203L779.375 201.125H774.375L768.125 203L761.25 207.375L760 208L760.625 203.625V202.375L757.5 204.875L753.125 212.375L750.625 219.875L749.375 225.5H748.75L745.625 209.25L741.875 199.25L737.5 191.125L730.625 183.625L724.375 179.875H722.5L725.625 183L725 184.25L716.25 179.875L706.875 177.375L701.875 176.75H694.375L685 178.625L681.25 179.25V180.5L686.875 181.75L697.5 187.375L698.75 189.25L692.5 192.375L691.875 193L703.125 194.875L713.125 198.625L724.375 204.875L726.875 207.375L722.5 206.75H716.875L723.125 210.5L729.375 216.125L733.75 222.375L736.875 229.25L737.5 234.25L735.625 231.75L731.875 226.125L729.375 223L725.625 220.5L726.25 224.25L721.875 220.5L715.625 215.5L706.875 211.75L703.75 211.125H693.125L686.875 213L681.25 216.125L692.5 217.375L700.625 220.5L703.125 221.75V223L697.5 224.875V226.125L702.5 226.75L713.75 231.75L723.75 238L730.625 244.875L731.875 248L727.5 244.25L721.875 239.875L713.125 234.875L704.375 231.75L701.25 231.125H692.5L698.125 233.625L699.375 234.875L688.75 237.375L681.25 240.5L673.75 244.875L665.625 252.375L665 253.625L673.75 249.875L676.875 249.25H684.375L687.5 250.5L684.375 253L681.875 256.125L689.375 253L698.125 251.125H713.125L715 252.375L710 255.5H712.5H723.125L731.25 258L736.25 261.75L740 266.75L741.25 270.5V279.25L738.125 294.875L735 306.75L728.75 323L725 331.75L726.25 333.625H723.75L718.75 343.625L713.75 353L714.375 355.5L718.125 358.625H716.25L711.875 356.125L704.375 369.25L689.375 394.25L685.625 393.625L675.625 389.25L665 383.625L654.375 376.125L647.5 370.5L639.375 363L635 358L627.5 348.625L620.625 337.375L615.625 327.375L611.875 318.625L608.125 306.125L605.625 294.25L604.375 282.375V267.375L606.25 251.75L610 236.75L615 223.625L620 213.625L624.375 206.125L630.625 197.375L636.25 190.5L641.875 184.25L646.875 179.875L655 173L664.375 166.75L674.375 161.125L686.875 155.5L701.25 151.125L714.375 148.625L720 148Z" fill="#EC115E"/>
<path d="M728.75 458.625H747.5L765.625 460.5L780 463.625L792.5 468L802.5 473L810 477.375L816.25 482.375L823.75 489.25L830 496.75L835 504.875L840 514.875L843.75 526.125L845.625 534.25H844.375L840 528L834.375 521.75L828.125 517.375L820.625 513.625L811.25 511.125L805 510.5H798.125L786.875 511.75L771.25 515.5L747.5 523L728.75 529.875L711.875 536.75L694.375 543L681.25 546.125L676.875 546.75H663.75L653.75 544.25L646.25 540.5L640 535.5L634.375 529.875L633.125 527.375L638.75 529.25L641.25 529.875H653.75L668.125 526.75L685 521.125L716.25 508.625L733.75 501.75L750.625 496.125L765.625 493L771.25 492.375H795L784.375 490.5L776.875 489.875H764.375L749.375 491.125L729.375 494.25L693.75 501.75L673.75 506.75L640 516.125L621.25 520.5L606.875 523L601.25 523.625H580L569.375 521.75L560 518.625L551.25 514.25L544.375 509.25L536.875 502.375L528.75 491.75L526.875 488.625L527.5 487.375L533.125 491.125L543.125 494.25L548.125 494.875H565L579.375 493L600.625 488.625L631.25 480.5L668.75 469.875L691.25 464.25L710.625 460.5L728.75 458.625Z" fill="#181641"/>
<path d="M583.75 347.375L585 348L579.375 354.25L571.25 364.875L565 374.25L559.375 386.125L557.5 393.625V401.125L560 408L564.375 413L570.625 416.75L580.625 420.5L593.125 423L603.75 424.25L614.375 424.875H645.625L701.25 422.375H742.5L758.75 424.25L776.875 428L793.75 433.625L805.625 439.25L815.625 445.5L821.875 450.5L828.125 456.125L833.125 461.125L839.375 469.25L845 478.625L850 489.25L853.75 501.125L856.875 516.75V519.875L855.625 518.625L851.25 508.625L845.625 498.625L840 491.125L832.5 482.375L827.5 478L820 472.375L810.625 466.75L800 461.75L786.875 457.375L771.875 454.25L755.625 452.375H723.75L703.125 454.25L663.75 459.25L625 464.875L602.5 467.375L592.5 468H575L563.75 466.75L553.125 464.25L546.25 461.125L540 457.375L533.125 451.75L527.5 445.5L522.5 436.75L519.375 427.375L518.75 423V413.625L520.625 404.25L525 393.625L531.25 384.25L538.125 376.75L545 369.875L556.875 361.125L571.25 353L581.875 348L583.75 347.375Z" fill="#181641"/>
<path d="M309.879 721H296.842C283.365 721 270.865 716.85 259.342 708.549V716.605C259.342 737.699 251.725 755.521 236.49 770.072C221.354 784.721 202.408 792.045 179.654 792.045V758.5C193.229 758.5 204.312 754.447 212.906 746.342C221.598 738.236 225.943 728.324 225.943 716.605V624.613H259.342V645.561C259.342 657.572 262.809 667.533 269.742 675.443C276.773 683.353 285.807 687.309 296.842 687.309H309.879V721ZM406.559 721H296.842V687.309H406.559V721ZM499.43 721H389.713V687.309H499.43V721ZM592.301 721H482.584V687.309H592.301V721ZM685.172 721H575.455V687.309H685.172V721ZM778.043 721H668.326V687.309H778.043V721ZM917.057 721H761.197V687.309H792.838C791.275 682.523 790.494 677.592 790.494 672.514C790.494 659.037 795.23 647.562 804.703 638.09C814.176 628.52 825.602 623.734 838.98 623.734C852.945 623.734 864.664 628.764 874.137 638.822C883.219 648.686 887.76 660.502 887.76 674.271V687.309H917.057V721ZM854.215 687.309V672.514C854.215 668.217 852.701 664.604 849.674 661.674C846.744 658.646 843.18 657.133 838.98 657.133C834.781 657.133 831.217 658.598 828.287 661.527C825.455 664.457 824.039 668.119 824.039 672.514C824.039 676.615 825.455 680.131 828.287 683.061C831.217 685.893 834.781 687.309 838.98 687.309H854.215ZM850.26 599.564H833.561C828.971 599.564 825.016 597.953 821.695 594.73C818.375 591.41 816.715 587.455 816.715 582.865C816.715 578.275 818.375 574.32 821.695 571C825.016 567.68 828.971 566.02 833.561 566.02C838.15 566.02 842.057 567.68 845.279 571C848.6 574.32 850.26 578.275 850.26 582.865V599.564ZM1130.34 721H1101.04C1085.81 721 1071.84 716.752 1059.15 708.256V721H1030C1014.66 721 1000.7 716.752 988.102 708.256V721H904.166V687.309H954.557V624.613H988.102V645.561C988.102 656.303 991.715 665.629 998.941 673.539C1006.27 681.449 1015.15 685.941 1025.6 687.016V624.613H1059.15V645.561C1059.15 656.303 1062.76 665.629 1069.99 673.539C1077.31 681.449 1086.2 685.941 1096.65 687.016V624.613H1130.34V721Z" fill="#00B6C1"/>
<path d="M245.83 573H216.387C215.215 592.824 207.354 609.621 192.803 623.391C178.35 637.16 161.113 644.045 141.094 644.045C120.293 644.045 102.52 636.672 87.7734 621.926C73.0273 607.18 65.6543 589.406 65.6543 568.605C65.6543 549.562 72.8809 531.838 87.334 515.432L112.09 537.844C103.496 547.902 99.1992 558.156 99.1992 568.605C99.1992 580.129 103.301 589.992 111.504 598.195C119.707 606.398 129.57 610.5 141.094 610.5C151.836 610.5 161.162 606.887 169.072 599.66C176.982 592.434 181.475 583.547 182.549 573H136.699V539.309H245.83V573ZM399.346 573H232.939V539.309H363.896C361.064 530.715 355.986 523.684 348.662 518.215C341.436 512.746 333.135 510.012 323.76 510.012L273.809 510.158V476.613H323.76C344.561 476.613 362.334 483.986 377.08 498.732C391.924 513.381 399.346 531.154 399.346 552.053V573ZM354.668 631.594H337.822C333.135 631.594 329.131 629.934 325.811 626.613C322.588 623.391 320.977 619.484 320.977 614.895C320.977 610.305 322.588 606.35 325.811 603.029C329.131 599.709 333.135 598.049 337.822 598.049C342.412 598.049 346.367 599.709 349.688 603.029C353.008 606.35 354.668 610.305 354.668 614.895V631.594ZM316.582 631.594H299.736C295.049 631.594 291.045 629.934 287.725 626.613C284.502 623.391 282.891 619.484 282.891 614.895C282.891 610.305 284.502 606.35 287.725 603.029C291.045 599.709 295.049 598.049 299.736 598.049C304.326 598.049 308.281 599.709 311.602 603.029C314.922 606.35 316.582 610.305 316.582 614.895V631.594ZM335.625 666.164H318.926C314.238 666.164 310.234 664.504 306.914 661.184C303.691 657.961 302.08 654.006 302.08 649.318C302.08 644.729 303.691 640.773 306.914 637.453C310.234 634.133 314.238 632.473 318.926 632.473C323.516 632.473 327.422 634.133 330.645 637.453C333.965 640.773 335.625 644.729 335.625 649.318V666.164Z" fill="#00B6C1"/>
<path d="M290.406 766.594C284.281 766.594 280.552 768.667 279.219 772.812H289.594V779.062C289.594 783.5 288.01 787.292 284.844 790.438C281.698 793.583 277.917 795.156 273.5 795.156C269.062 795.156 265.271 793.583 262.125 790.438C258.979 787.292 257.406 783.5 257.406 779.062C257.406 775 258.948 771.219 262.031 767.719L267.312 772.5C265.479 774.646 264.562 776.833 264.562 779.062C264.562 781.521 265.438 783.625 267.188 785.375C268.938 787.125 271.042 788 273.5 788C275.792 788 277.781 787.229 279.469 785.688C281.156 784.146 282.115 782.25 282.344 780H271.625V775.531C271.625 770.948 273.323 767.135 276.719 764.094C280.24 760.99 284.802 759.438 290.406 759.438V766.594ZM322.625 780H319.844C316.969 780 314.302 779.115 311.844 777.344V779.062C311.844 783.562 310.219 787.365 306.969 790.469C303.74 793.594 299.698 795.156 294.844 795.156V788C297.74 788 300.104 787.135 301.938 785.406C303.792 783.677 304.719 781.562 304.719 779.062V759.438H311.844V763.906C311.844 766.469 312.583 768.594 314.062 770.281C315.562 771.969 317.49 772.812 319.844 772.812H322.625V780ZM343.938 748.188L334.531 756.125L331.562 752.75L340.969 744.812L343.938 748.188ZM360.125 780H319.844V772.812H346.656C346.448 770.667 345.542 768.833 343.938 767.312C342.354 765.771 340.49 764.927 338.344 764.781L330.344 771.031L325.719 765.656L350.438 744.812L355.062 750.281L344.375 759.031C347.083 760.26 349.292 762.104 351 764.562C352.729 767.021 353.677 769.771 353.844 772.812H360.125V780ZM405.594 780H399.344C396.094 780 393.115 779.094 390.406 777.281V780H384.188C380.917 780 377.938 779.094 375.25 777.281V780H357.344V772.812H368.094V759.438H375.25V763.906C375.25 766.198 376.021 768.188 377.562 769.875C379.125 771.562 381.021 772.521 383.25 772.75V759.438H390.406V763.906C390.406 766.198 391.177 768.188 392.719 769.875C394.281 771.562 396.177 772.521 398.406 772.75V759.438H405.594V780ZM388.719 745.625H385.094C384.115 745.625 383.271 745.271 382.562 744.562C381.875 743.854 381.531 743 381.531 742C381.531 741.021 381.875 740.188 382.562 739.5C383.271 738.792 384.115 738.438 385.094 738.438C386.094 738.438 386.948 738.792 387.656 739.5C388.365 740.188 388.719 741.021 388.719 742V745.625ZM393.219 752.969H389.625C388.646 752.969 387.802 752.615 387.094 751.906C386.406 751.198 386.062 750.354 386.062 749.375C386.062 748.375 386.406 747.531 387.094 746.844C387.802 746.156 388.646 745.812 389.625 745.812C390.604 745.812 391.448 746.156 392.156 746.844C392.865 747.531 393.219 748.375 393.219 749.375V752.969ZM385.094 752.969H381.5C380.521 752.969 379.677 752.615 378.969 751.906C378.281 751.198 377.938 750.354 377.938 749.375C377.938 748.375 378.281 747.531 378.969 746.844C379.677 746.156 380.521 745.812 381.5 745.812C382.479 745.812 383.323 746.156 384.031 746.844C384.74 747.531 385.094 748.375 385.094 749.375V752.969ZM442.219 780H410.031V772.812H434.625C434.042 770.979 432.969 769.479 431.406 768.312C429.844 767.125 428.083 766.531 426.125 766.531L415.406 766.562V759.406H426.125C430.521 759.406 434.302 760.979 437.469 764.125C440.635 767.271 442.219 771.062 442.219 775.5V780ZM474.438 780H471.656C468.781 780 466.115 779.115 463.656 777.344V779.062C463.656 783.562 462.031 787.365 458.781 790.469C455.552 793.594 451.51 795.156 446.656 795.156V788C449.552 788 451.917 787.135 453.75 785.406C455.604 783.677 456.531 781.562 456.531 779.062V759.438H463.656V763.906C463.656 766.469 464.396 768.594 465.875 770.281C467.375 771.969 469.302 772.812 471.656 772.812H474.438V780ZM492.281 748.188L482.844 756.125L479.906 752.75L489.312 744.812L492.281 748.188ZM503.438 750.25L492.688 759.031C495.562 760.323 497.875 762.292 499.625 764.938C501.375 767.583 502.25 770.521 502.25 773.75V780H471.844V772.812H495C494.792 770.667 493.896 768.833 492.312 767.312C490.729 765.771 488.854 764.927 486.688 764.781L478.688 771.031L474.094 765.594L498.781 744.781L503.438 750.25ZM541.094 779.062C541.094 783.562 539.469 787.365 536.219 790.469C532.969 793.594 528.917 795.156 524.062 795.156V788C526.75 788 529.021 787.229 530.875 785.688C532.646 784.188 533.646 782.292 533.875 780H530.688C527.833 780 525.396 778.969 523.375 776.906C521.354 774.844 520.344 772.385 520.344 769.531C520.344 766.656 521.354 764.208 523.375 762.188C525.396 760.146 527.833 759.125 530.688 759.125C533.667 759.125 536.167 760.198 538.188 762.344C540.125 764.448 541.094 766.969 541.094 769.906V779.062ZM533.938 772.688V769.531C533.938 768.615 533.615 767.844 532.969 767.219C532.344 766.573 531.583 766.25 530.688 766.25C529.792 766.25 529.031 766.562 528.406 767.188C527.802 767.812 527.5 768.594 527.5 769.531C527.5 770.406 527.802 771.156 528.406 771.781C529.031 772.385 529.792 772.688 530.688 772.688H533.938ZM597.719 780H591.438C591.188 784.229 589.51 787.812 586.406 790.75C583.323 793.688 579.646 795.156 575.375 795.156C570.938 795.156 567.146 793.583 564 790.438C560.854 787.292 559.281 783.5 559.281 779.062C559.281 775 560.823 771.219 563.906 767.719L569.188 772.5C567.354 774.646 566.438 776.833 566.438 779.062C566.438 781.521 567.312 783.625 569.062 785.375C570.812 787.125 572.917 788 575.375 788C577.667 788 579.656 787.229 581.344 785.688C583.031 784.146 583.99 782.25 584.219 780H574.438V772.812H597.719V780ZM612.875 780H594.969V772.812H605.719V759.438H612.875V780ZM613.188 752.938H609.562C608.583 752.938 607.74 752.583 607.031 751.875C606.344 751.167 606 750.323 606 749.344C606 748.344 606.344 747.5 607.031 746.812C607.74 746.125 608.583 745.781 609.562 745.781C610.562 745.781 611.417 746.125 612.125 746.812C612.833 747.5 613.188 748.344 613.188 749.344V752.938ZM605.062 752.938H601.469C600.469 752.938 599.615 752.583 598.906 751.875C598.219 751.167 597.875 750.323 597.875 749.344C597.875 748.344 598.219 747.5 598.906 746.812C599.615 746.125 600.469 745.781 601.469 745.781C602.448 745.781 603.292 746.125 604 746.812C604.708 747.5 605.062 748.344 605.062 749.344V752.938ZM645.25 780H642.469C639.594 780 636.927 779.115 634.469 777.344V779.062C634.469 783.562 632.844 787.365 629.594 790.469C626.365 793.594 622.323 795.156 617.469 795.156V788C620.365 788 622.729 787.135 624.562 785.406C626.417 783.677 627.344 781.562 627.344 779.062V759.438H634.469V763.906C634.469 766.469 635.208 768.594 636.688 770.281C638.188 771.969 640.115 772.812 642.469 772.812H645.25V780ZM669.469 780H642.469V772.812H649.219C648.885 771.792 648.719 770.74 648.719 769.656C648.719 766.781 649.729 764.333 651.75 762.312C653.771 760.271 656.208 759.25 659.062 759.25C662.042 759.25 664.542 760.323 666.562 762.469C668.5 764.573 669.469 767.094 669.469 770.031V780ZM662.312 772.812V769.656C662.312 768.74 661.99 767.969 661.344 767.344C660.719 766.698 659.958 766.375 659.062 766.375C658.167 766.375 657.406 766.688 656.781 767.312C656.177 767.938 655.875 768.719 655.875 769.656C655.875 770.531 656.177 771.281 656.781 771.906C657.406 772.51 658.167 772.812 659.062 772.812H662.312ZM661.344 754.219H657.781C656.802 754.219 655.958 753.875 655.25 753.188C654.542 752.479 654.188 751.635 654.188 750.656C654.188 749.677 654.542 748.833 655.25 748.125C655.958 747.417 656.802 747.062 657.781 747.062C658.76 747.062 659.594 747.417 660.281 748.125C660.99 748.833 661.344 749.677 661.344 750.656V754.219ZM693.5 780H690.719C686.344 780 682.865 778.583 680.281 775.75C677.781 773 676.531 769.375 676.531 764.875V746.031H683.719V764.875C683.719 770.167 686.052 772.812 690.719 772.812H693.5V780ZM749.719 780H746.969C744.073 780 741.406 779.115 738.969 777.344V780H732.719C729.469 780 726.49 779.094 723.781 777.281V780H717.562C714.292 780 711.312 779.094 708.625 777.281V780H690.719V772.812H701.469V759.438H708.625V763.906C708.625 766.198 709.396 768.188 710.938 769.875C712.5 771.562 714.396 772.521 716.625 772.75V759.438H723.781V763.906C723.781 766.198 724.552 768.188 726.094 769.875C727.656 771.562 729.552 772.521 731.781 772.75V759.438H738.969V763.906C738.969 766.469 739.719 768.594 741.219 770.281C742.719 771.969 744.635 772.812 746.969 772.812H749.719V780ZM777.656 780H767.688C764.167 780 761.365 778.698 759.281 776.094C756.385 778.698 753.208 780 749.75 780H746.969V772.812H749.75C753.542 772.812 756.083 770.698 757.375 766.469C758.042 764.323 759.281 762.583 761.094 761.25C762.906 759.896 764.979 759.219 767.312 759.219C770.083 759.219 772.479 760.188 774.5 762.125C776.604 764.146 777.656 766.604 777.656 769.5V780ZM770.469 772.812V769.562C770.469 768.667 770.156 767.917 769.531 767.312C768.927 766.688 768.188 766.375 767.312 766.375C766.396 766.375 765.615 766.688 764.969 767.312C764.344 767.917 764.031 768.667 764.031 769.562C764.031 770.458 764.344 771.229 764.969 771.875C765.615 772.5 766.396 772.812 767.312 772.812H770.469ZM845.844 780H811.938C807.5 780 803.708 778.427 800.562 775.281C797.417 772.115 795.844 768.323 795.844 763.906C795.844 759.573 797.542 755.635 800.938 752.094L806.094 757.031C804.031 759.198 803 761.49 803 763.906C803 766.365 803.875 768.469 805.625 770.219C807.375 771.948 809.479 772.812 811.938 772.812H838.688V759.438H845.844V780ZM829.562 755.5H825.938C824.958 755.5 824.115 755.146 823.406 754.438C822.719 753.729 822.375 752.885 822.375 751.906C822.375 750.906 822.719 750.062 823.406 749.375C824.115 748.688 824.958 748.344 825.938 748.344C826.938 748.344 827.792 748.688 828.5 749.375C829.208 750.062 829.562 750.906 829.562 751.906V755.5ZM821.438 755.5H817.844C816.844 755.5 815.99 755.146 815.281 754.438C814.594 753.729 814.25 752.885 814.25 751.906C814.25 750.906 814.594 750.062 815.281 749.375C815.99 748.688 816.844 748.344 817.844 748.344C818.823 748.344 819.667 748.688 820.375 749.375C821.083 750.062 821.438 750.906 821.438 751.906V755.5ZM869.812 780H867.031C862.656 780 859.177 778.583 856.594 775.75C854.094 773 852.844 769.375 852.844 764.875V746.031H860.031V764.875C860.031 770.167 862.365 772.812 867.031 772.812H869.812V780ZM897.719 780H887.75C884.229 780 881.427 778.698 879.344 776.094C876.448 778.698 873.271 780 869.812 780H867.031V772.812H869.812C873.604 772.812 876.146 770.698 877.438 766.469C878.104 764.323 879.344 762.583 881.156 761.25C882.969 759.896 885.042 759.219 887.375 759.219C890.146 759.219 892.542 760.188 894.562 762.125C896.667 764.146 897.719 766.604 897.719 769.5V780ZM890.531 772.812V769.562C890.531 768.667 890.219 767.917 889.594 767.312C888.99 766.688 888.25 766.375 887.375 766.375C886.458 766.375 885.677 766.688 885.031 767.312C884.406 767.917 884.094 768.667 884.094 769.562C884.094 770.458 884.406 771.229 885.031 771.875C885.677 772.5 886.458 772.812 887.375 772.812H890.531ZM942.25 780H939.469C937.698 780 936 779.615 934.375 778.844V780H902.156V772.812H926.781C926.198 770.979 925.125 769.479 923.562 768.312C922 767.125 920.229 766.531 918.25 766.531L907.562 766.562V759.406H918.25C924.167 759.406 928.677 761.917 931.781 766.938C933.323 769.458 934.25 770.875 934.562 771.188C935.646 772.271 937.281 772.812 939.469 772.812H942.25V780ZM974.969 780H939.469V772.812H967.406C966.802 770.979 965.719 769.479 964.156 768.312C962.615 767.146 960.844 766.562 958.844 766.562L948.188 766.594V759.438H958.844C963.281 759.438 967.073 761.01 970.219 764.156C973.385 767.281 974.969 771.073 974.969 775.531V780ZM956.656 755.75H953.094C952.115 755.75 951.271 755.406 950.562 754.719C949.854 754.01 949.5 753.167 949.5 752.188C949.5 751.208 949.854 750.365 950.562 749.656C951.271 748.948 952.115 748.594 953.094 748.594C954.073 748.594 954.906 748.948 955.594 749.656C956.302 750.365 956.656 751.208 956.656 752.188V755.75ZM1066.44 780H1063.69C1060.79 780 1058.12 779.115 1055.69 777.344V780H1049.44C1046.19 780 1043.21 779.094 1040.5 777.281V780H1034.25C1031 780 1028.03 779.094 1025.34 777.281V779.062C1025.34 783.5 1023.76 787.292 1020.59 790.438C1017.45 793.583 1013.67 795.156 1009.25 795.156C1004.81 795.156 1001.02 793.583 997.875 790.438C994.729 787.292 993.156 783.5 993.156 779.062C993.156 774.562 994.771 770.75 998 767.625C1001.25 764.5 1005.3 762.938 1010.16 762.938V770.094C1007.28 770.094 1004.92 770.958 1003.06 772.688C1001.23 774.417 1000.31 776.542 1000.31 779.062C1000.31 781.521 1001.19 783.625 1002.94 785.375C1004.69 787.125 1006.79 788 1009.25 788C1011.71 788 1013.8 787.125 1015.53 785.375C1017.28 783.625 1018.16 781.521 1018.16 779.062V759.438H1025.34V763.906C1025.34 766.177 1026.11 768.167 1027.66 769.875C1029.2 771.562 1031.09 772.521 1033.34 772.75V759.438H1040.5V763.906C1040.5 766.198 1041.27 768.188 1042.81 769.875C1044.38 771.562 1046.27 772.521 1048.5 772.75V759.438H1055.69V763.906C1055.69 766.448 1056.43 768.573 1057.91 770.281C1059.41 771.969 1061.33 772.812 1063.69 772.812H1066.44V780ZM1076.66 754.031H1073.09C1072.11 754.031 1071.27 753.688 1070.56 753C1069.85 752.292 1069.5 751.448 1069.5 750.469C1069.5 749.49 1069.85 748.646 1070.56 747.938C1071.27 747.229 1072.11 746.875 1073.09 746.875C1074.07 746.875 1074.91 747.229 1075.59 747.938C1076.3 748.646 1076.66 749.49 1076.66 750.469V754.031ZM1081.62 780H1063.72V772.812H1074.47V759.438H1081.62V780ZM1096.03 780H1088.84V746.031H1096.03V780ZM1117.47 779.062C1117.47 783.562 1115.84 787.365 1112.59 790.469C1109.36 793.594 1105.32 795.156 1100.47 795.156V788C1103.36 788 1105.73 787.135 1107.56 785.406C1109.42 783.677 1110.34 781.562 1110.34 779.062V759.438H1117.47V779.062ZM1115.59 747.156H1111.97C1110.99 747.156 1110.15 746.802 1109.44 746.094C1108.75 745.385 1108.41 744.531 1108.41 743.531C1108.41 742.552 1108.75 741.719 1109.44 741.031C1110.15 740.323 1110.99 739.969 1111.97 739.969C1112.97 739.969 1113.82 740.323 1114.53 741.031C1115.24 741.719 1115.59 742.552 1115.59 743.531V747.156ZM1120.09 754.5H1116.5C1115.52 754.5 1114.68 754.146 1113.97 753.438C1113.28 752.729 1112.94 751.885 1112.94 750.906C1112.94 749.906 1113.28 749.062 1113.97 748.375C1114.68 747.688 1115.52 747.344 1116.5 747.344C1117.48 747.344 1118.32 747.688 1119.03 748.375C1119.74 749.062 1120.09 749.906 1120.09 750.906V754.5ZM1111.97 754.5H1108.38C1107.4 754.5 1106.55 754.146 1105.84 753.438C1105.16 752.729 1104.81 751.885 1104.81 750.906C1104.81 749.906 1105.16 749.062 1105.84 748.375C1106.55 747.688 1107.4 747.344 1108.38 747.344C1109.35 747.344 1110.2 747.688 1110.91 748.375C1111.61 749.062 1111.97 749.906 1111.97 750.906V754.5ZM1137.97 744.844H1132.81C1132.5 739.99 1130.75 737.562 1127.56 737.562C1124.38 737.562 1122.64 739.99 1122.34 744.844H1117.12C1117.38 740.927 1118.49 737.854 1120.47 735.625C1122.32 733.479 1124.69 732.406 1127.56 732.406C1129.54 732.406 1131.28 732.802 1132.78 733.594V732.406H1137.97V744.844ZM1131.72 780H1124.53V746.031H1131.72V780Z" fill="black"/>
</g>
</g>
<defs>
<clipPath id="clip0_121_267">
<rect width="1218" height="816" fill="white"/>
</clipPath>
<clipPath id="clip1_121_267">
<rect width="1280" height="1280" fill="white" transform="translate(45 -297)"/>
</clipPath>
</defs>
</svg>
