<?xml version="1.0" encoding="utf-8"?>
<!-- Generator: Adobe Illustrator 23.1.0, SVG Export Plug-In . SVG Version: 6.00 Build 0)  -->
<svg version="1.1" id="Layer_1" xmlns="http://www.w3.org/2000/svg" xmlns:xlink="http://www.w3.org/1999/xlink" x="0px" y="0px"
	 viewBox="0 0 700 700" style="enable-background:new 0 0 700 700;" xml:space="preserve">
<style type="text/css">
	.st0{fill:#4D7902;}
	.st1{fill-rule:evenodd;clip-rule:evenodd;fill:#73B504;}
	.st2{fill-rule:evenodd;clip-rule:evenodd;fill:#EEF1F2;}
</style>
<g id="Layer_x0020_1">
	<path class="st0" d="M216.5,152.7c-4.4,0-8,3.6-8,8s3.6,8,8,8H342c4.4,0,8-3.6,8-8s-3.6-8-8-8H216.5z M394.2,152.7
		c-4.4,0-8,3.6-8,8s3.6,8,8,8h125.5c4.4,0,8-3.6,8-8s-3.6-8-8-8H394.2z M571.9,152.7c-4.4,0-8,3.6-8,8s3.6,8,8,8h12
		c6.6,0,12.7,2.7,17,7.1c4.4,4.4,7.1,10.4,7.1,17v353.4c0,6.6-2.7,12.7-7.1,17c-4.4,4.4-10.4,7.1-17,7.1H152.2
		c-6.6,0-12.7-2.7-17-7.1c-4.4-4.4-7.1-10.4-7.1-17V192.9c0-6.6,2.7-12.7,7.1-17c4.4-4.4,10.4-7.1,17-7.1h12c4.4,0,8-3.6,8-8
		s-3.6-8-8-8h-12c-11,0-21.1,4.5-28.3,11.8c-7.3,7.3-11.8,17.3-11.8,28.3v353.4c0,11,4.5,21.1,11.8,28.3
		c7.3,7.3,17.3,11.8,28.3,11.8H584c11,0,21.1-4.5,28.3-11.8c7.3-7.3,11.8-17.3,11.8-28.3V192.9c0-11-4.5-21.1-11.8-28.3
		c-7.3-7.3-17.3-11.8-28.3-11.8L571.9,152.7L571.9,152.7z"/>
	<path class="st0" d="M190.4,113.6c9.4,0,17.9,3.8,24.1,10c6.2,6.2,10,14.7,10,24.1v26.1c0,9.4-3.8,17.9-10,24.1
		c-6.2,6.2-14.7,10-24.1,10c-9.4,0-17.9-3.8-24.1-10c-6.2-6.2-10-14.7-10-24.1v-26.1c0-9.4,3.8-17.9,10-24.1
		C172.5,117.4,181,113.6,190.4,113.6z M203.2,134.9c-3.3-3.3-7.8-5.3-12.8-5.3c-5,0-9.5,2-12.8,5.3s-5.3,7.8-5.3,12.8v26.1
		c0,5,2,9.5,5.3,12.8c3.3,3.3,7.8,5.3,12.8,5.3c5,0,9.5-2,12.8-5.3c3.3-3.3,5.3-7.8,5.3-12.8v-26.1
		C208.5,142.7,206.5,138.2,203.2,134.9z"/>
	<path class="st0" d="M368.1,113.6c9.4,0,17.9,3.8,24.1,10c6.2,6.2,10,14.7,10,24.1v26.1c0,9.4-3.8,17.9-10,24.1
		c-6.2,6.2-14.7,10-24.1,10s-17.9-3.8-24.1-10c-6.2-6.2-10-14.7-10-24.1v-26.1c0-9.4,3.8-17.9,10-24.1
		C350.2,117.4,358.7,113.6,368.1,113.6z M380.9,134.9c-3.3-3.3-7.8-5.3-12.8-5.3c-5,0-9.5,2-12.8,5.3s-5.3,7.8-5.3,12.8v26.1
		c0,5,2,9.5,5.3,12.8c3.3,3.3,7.8,5.3,12.8,5.3c5,0,9.5-2,12.8-5.3s5.3-7.8,5.3-12.8v-26.1C386.2,142.7,384.2,138.2,380.9,134.9z"/>
	<path class="st0" d="M545.8,113.6c9.4,0,17.9,3.8,24.1,10s10,14.7,10,24.1v26.1c0,9.4-3.8,17.9-10,24.1c-6.2,6.2-14.7,10-24.1,10
		c-9.4,0-17.9-3.8-24.1-10s-10-14.7-10-24.1v-26.1c0-9.4,3.8-17.9,10-24.1C527.9,117.4,536.4,113.6,545.8,113.6z M558.6,134.9
		c-3.3-3.3-7.8-5.3-12.8-5.3s-9.5,2-12.8,5.3c-3.3,3.3-5.3,7.8-5.3,12.8v26.1c0,5,2,9.5,5.3,12.8c3.3,3.3,7.8,5.3,12.8,5.3
		c5,0,9.5-2,12.8-5.3s5.3-7.8,5.3-12.8v-26.1C563.9,142.7,561.9,138.2,558.6,134.9z"/>
	<path class="st0" d="M120.1,237.1c-4.4,0-8,3.6-8,8s3.6,8,8,8h496c4.4,0,8-3.6,8-8s-3.6-8-8-8C616.1,237.1,120.1,237.1,120.1,237.1
		z"/>
	<path class="st0" d="M325,307.5c-3.1,3.1-3.1,8.2,0,11.3s8.2,3.1,11.3,0c8.4-8.4,19.5-12.7,30.6-12.7s22.1,4.2,30.6,12.7
		c8.4,8.4,12.7,19.5,12.7,30.6s-4.2,22.1-12.7,30.6c-0.1,0.1-0.3,0.3-0.4,0.4c-4,3.9-8.6,6.9-13.6,9c-5.2,2.2-10.9,3.3-16.6,3.3
		c-4.4,0-8,3.6-8,8s3.6,8,8,8c7.9,0,15.5-1.6,22.6-4.5c6.9-2.9,13.3-7.1,18.8-12.4c0.2-0.1,0.3-0.3,0.5-0.4l0,0h0l0,0
		c11.6-11.6,17.4-26.7,17.4-41.9s-5.8-30.3-17.4-41.9c-11.6-11.6-26.7-17.4-41.9-17.4S336.6,295.9,325,307.5L325,307.5z"/>
	<path class="st0" d="M336.3,482.5c-3.1-3.1-8.2-3.1-11.3,0s-3.1,8.2,0,11.3c11.6,11.6,26.7,17.4,41.9,17.4s30.3-5.8,41.9-17.4
		c11.6-11.6,17.4-26.7,17.4-41.9s-5.8-30.3-17.4-41.9l0,0c-0.2-0.2-0.3-0.3-0.5-0.5c-5.4-5.3-11.8-9.5-18.8-12.4
		c-7.1-2.9-14.8-4.5-22.6-4.5c-4.4,0-8,3.6-8,8s3.6,8,8,8c5.7,0,11.4,1.1,16.6,3.3c5,2.1,9.6,5.1,13.6,9c0.1,0.1,0.3,0.3,0.4,0.4
		l0,0c8.4,8.4,12.7,19.5,12.7,30.6s-4.2,22.1-12.7,30.6c-8.4,8.4-19.5,12.7-30.6,12.7S344.7,490.9,336.3,482.5L336.3,482.5z"/>
	<path class="st0" d="M501.1,286.8L501.1,286.8c14.8,0,28.2,6,37.9,15.7c9.7,9.7,15.7,23.1,15.7,37.9v120.5c0,14.8-6,28.2-15.7,37.9
		c-9.7,9.7-23.1,15.7-37.9,15.7h0c-14.8,0-28.2-6-37.9-15.7c-9.7-9.7-15.7-23.1-15.7-37.9V340.4c0-14.8,6-28.2,15.7-37.9
		C473,292.8,486.4,286.8,501.1,286.8L501.1,286.8z M501.1,302.8L501.1,302.8c-10.3,0-19.7,4.2-26.6,11.1
		c-6.8,6.8-11.1,16.2-11.1,26.6v120.5c0,10.3,4.2,19.7,11.1,26.6c6.8,6.8,16.2,11.1,26.6,11.1h0c10.3,0,19.7-4.2,26.6-11.1
		c6.8-6.8,11.1-16.2,11.1-26.6V340.4c0-10.3-4.2-19.7-11.1-26.6C520.9,307,511.5,302.8,501.1,302.8L501.1,302.8z"/>
	<path class="st0" d="M171.1,321.8c-4.4,0-8,3.6-8,8s3.6,8,8,8h96.2c4.4,0,8-3.6,8-8s-3.6-8-8-8H171.1L171.1,321.8z"/>
	<path class="st0" d="M171.1,363c-4.4,0-8,3.6-8,8s3.6,8,8,8h96.2c4.4,0,8-3.6,8-8s-3.6-8-8-8H171.1L171.1,363z"/>
	<path class="st0" d="M171.1,404.3c-4.4,0-8,3.6-8,8s3.6,8,8,8h96.2c4.4,0,8-3.6,8-8s-3.6-8-8-8H171.1L171.1,404.3z"/>
	<path class="st0" d="M173,441.8h95c4.4,0,8,3.6,8,8v75.6c0,4.4-3.6,8-8,8h-95c-4.4,0-8-3.6-8-8v-75.6
		C165,445.4,168.6,441.8,173,441.8L173,441.8z M260,457.8h-79v59.6h79V457.8z"/>
	<polygon class="st1" points="260,457.8 181,457.8 181,517.4 260,517.4 	"/>
	<path class="st2" d="M173,441.8h95c4.4,0,8,3.6,8,8v75.6c0,4.4-3.6,8-8,8h-95c-4.4,0-8-3.6-8-8v-75.6
		C165,445.4,168.6,441.8,173,441.8L173,441.8z M171.1,404.3h96.2c4.4,0,8,3.6,8,8s-3.6,8-8,8h-96.2c-4.4,0-8-3.6-8-8
		S166.7,404.3,171.1,404.3L171.1,404.3z M267.4,363c4.4,0,8,3.6,8,8s-3.6,8-8,8h-96.2c-4.4,0-8-3.6-8-8s3.6-8,8-8H267.4L267.4,363z
		 M325,482.5c3.1-3.1,8.2-3.1,11.3,0c8.4,8.4,19.5,12.7,30.6,12.7s22.1-4.2,30.6-12.7c8.4-8.4,12.7-19.5,12.7-30.6
		s-4.2-22.1-12.7-30.6l-0.4-0.4c-4-3.9-8.6-6.9-13.6-9c-5.2-2.2-10.9-3.3-16.6-3.3c-4.4,0-8-3.6-8-8s3.6-8,8-8
		c5.7,0,11.4-1.1,16.6-3.3c5-2.1,9.7-5.1,13.6-9l0.4-0.4c8.4-8.4,12.7-19.5,12.7-30.6s-4.2-22.1-12.7-30.6
		c-8.4-8.4-19.5-12.7-30.6-12.7s-22.1,4.2-30.6,12.7c-3.1,3.1-8.2,3.1-11.3,0s-3.1-8.2,0-11.3c11.6-11.6,26.7-17.4,41.9-17.4
		s30.3,5.8,41.9,17.4c11.6,11.6,17.4,26.7,17.4,41.9s-5.8,30.3-17.4,41.9l-0.5,0.4c-3.6,3.5-7.5,6.5-11.7,8.9
		c4.2,2.4,8.2,5.4,11.7,8.9l0.5,0.5c11.6,11.6,17.4,26.7,17.4,41.9s-5.8,30.3-17.4,41.9c-11.6,11.6-26.7,17.4-41.9,17.4
		s-30.3-5.8-41.9-17.4C321.9,490.7,321.9,485.6,325,482.5L325,482.5z M608.1,253.1h-480v293.2c0,6.6,2.7,12.7,7.1,17
		c4.4,4.4,10.4,7.1,17,7.1H584c6.6,0,12.7-2.7,17-7.1c4.4-4.4,7.1-10.4,7.1-17L608.1,253.1L608.1,253.1z M267.4,337.8h-96.2
		c-4.4,0-8-3.6-8-8s3.6-8,8-8h96.2c4.4,0,8,3.6,8,8S271.8,337.8,267.4,337.8z M501.1,286.8L501.1,286.8z M501.1,514.6L501.1,514.6z
		 M463.3,498.8c-9.7-9.7-15.7-23.1-15.7-37.9V340.4c0-14.8,6-28.2,15.7-37.9c9.7-9.7,23.1-15.7,37.9-15.7c14.8,0,28.2,6,37.9,15.7
		c9.7,9.7,15.7,23.1,15.7,37.9v120.5c0,14.8-6,28.2-15.7,37.9c-9.7,9.7-23.1,15.7-37.9,15.7C486.4,514.6,473,508.5,463.3,498.8z"/>
	<path class="st2" d="M463.5,340.4v120.5c0,10.3,4.2,19.7,11.1,26.6c6.8,6.8,16.2,11.1,26.6,11.1c10.3,0,19.7-4.2,26.6-11.1
		c6.8-6.8,11.1-16.2,11.1-26.6V340.4c0-10.3-4.2-19.7-11.1-26.6c-6.8-6.8-16.2-11.1-26.6-11.1c-10.3,0-19.7,4.2-26.6,11.1
		C467.8,320.7,463.5,330.1,463.5,340.4z"/>
	<path class="st1" d="M128.1,237.1h480v-44.2c0-6.6-2.7-12.7-7.1-17c-4.4-4.4-10.4-7.1-17-7.1h-4v5.1c0,9.4-3.8,17.9-10,24.1
		c-6.2,6.2-14.7,10-24.1,10c-9.4,0-17.9-3.8-24.1-10s-10-14.7-10-24.1v-5.1H402.2v5.1c0,9.4-3.8,17.9-10,24.1
		c-6.2,6.2-14.7,10-24.1,10s-17.9-3.8-24.1-10c-6.2-6.2-10-14.7-10-24.1v-5.1H224.5v5.1c0,9.4-3.8,17.9-10,24.1
		c-6.2,6.2-14.7,10-24.1,10c-9.4,0-17.9-3.8-24.1-10c-6.2-6.2-10-14.7-10-24.1v-5.1h-4c-6.6,0-12.7,2.7-17,7.1
		c-4.4,4.4-7.1,10.4-7.1,17L128.1,237.1L128.1,237.1z"/>
	<path class="st2" d="M527.7,173.8c0,5,2,9.5,5.3,12.8c3.3,3.3,7.8,5.3,12.8,5.3c5,0,9.5-2,12.8-5.3s5.3-7.8,5.3-12.8v-13.1v-13.1
		c0-5-2-9.5-5.3-12.8s-7.8-5.3-12.8-5.3s-9.5,2-12.8,5.3s-5.3,7.8-5.3,12.8v13.1V173.8z"/>
	<path class="st2" d="M380.9,186.6c3.3-3.3,5.3-7.8,5.3-12.8v-13.1v-13.1c0-5-2-9.5-5.3-12.8c-3.3-3.3-7.8-5.3-12.8-5.3
		c-5,0-9.5,2-12.8,5.3s-5.3,7.8-5.3,12.8v13.1v13.1c0,5,2,9.5,5.3,12.8c3.3,3.3,7.8,5.3,12.8,5.3
		C373.1,191.9,377.6,189.9,380.9,186.6z"/>
	<path class="st2" d="M208.5,173.8v-13.1v-13.1c0-5-2-9.5-5.3-12.8s-7.8-5.3-12.8-5.3c-5,0-9.5,2-12.8,5.3s-5.3,7.8-5.3,12.8v13.1
		v13.1c0,5,2,9.5,5.3,12.8c3.3,3.3,7.8,5.3,12.8,5.3c5,0,9.5-2,12.8-5.3C206.5,183.3,208.5,178.8,208.5,173.8z"/>
	<path class="st1" d="M172.3,147.7v13.1v13.1c0,5,2,9.5,5.3,12.8c3.3,3.3,7.8,5.3,12.8,5.3c5,0,9.5-2,12.8-5.3
		c3.3-3.3,5.3-7.8,5.3-12.8v-13.1v-13.1c0-5-2-9.5-5.3-12.8s-7.8-5.3-12.8-5.3c-5,0-9.5,2-12.8,5.3S172.3,142.7,172.3,147.7z"/>
	<path class="st1" d="M350,160.7v13.1c0,5,2,9.5,5.3,12.8c3.3,3.3,7.8,5.3,12.8,5.3c5,0,9.5-2,12.8-5.3s5.3-7.8,5.3-12.8v-13.1
		v-13.1c0-5-2-9.5-5.3-12.8c-3.3-3.3-7.8-5.3-12.8-5.3c-5,0-9.5,2-12.8,5.3s-5.3,7.8-5.3,12.8V160.7z"/>
	<path class="st1" d="M527.7,160.7v13.1c0,5,2,9.5,5.3,12.8c3.3,3.3,7.8,5.3,12.8,5.3c5,0,9.5-2,12.8-5.3s5.3-7.8,5.3-12.8v-13.1
		v-13.1c0-5-2-9.5-5.3-12.8s-7.8-5.3-12.8-5.3s-9.5,2-12.8,5.3s-5.3,7.8-5.3,12.8V160.7z"/>
</g>
</svg>
