<?xml version="1.0" encoding="UTF-8" standalone="no"?> <svg xmlns="http://www.w3.org/2000/svg" xmlns:xlink="http://www.w3.org/1999/xlink" viewBox="0 0 64 64"><defs><style>.cls-1{fill:url(#linear-gradient);}.cls-2{fill:url(#linear-gradient-2);}</style><linearGradient id="linear-gradient" x1="8.79" y1="28.54" x2="59.01" y2="28.54" gradientUnits="userSpaceOnUse"><stop offset="0" stop-color="#17a6d7"/><stop offset="1" stop-color="#9d31fe"/></linearGradient><linearGradient id="linear-gradient-2" x1="2.03" y1="52.93" x2="61.97" y2="52.93" xlink:href="#linear-gradient"/></defs><g id="Layer_73" data-name="Layer 73"><path class="cls-1" d="M12.21,31.23a2.11,2.11,0,0,0,1.25,1.54L51.77,47.65a5.35,5.35,0,0,0,6.78-2.82,5.51,5.51,0,0,0-3.1-7.27l-7.24-2.81-11-22a2,2,0,0,0-1.06-1L30.56,9.6a2,2,0,0,0-2.63,2.48L33.37,29,21.69,24.45,17.41,12.24A2,2,0,0,0,16.24,11L11.52,9.2a2,2,0,0,0-2.69,2.2Zm1.73-16.8,4.28,12.21a2.08,2.08,0,0,0,1.16,1.2l16.46,6.4a2,2,0,0,0,2.63-2.48L33,14.85l1,.38,11,22a2.28,2.28,0,0,0,.72.79l.35.18,8,3.09a1.48,1.48,0,0,1,.91,1.9,1.34,1.34,0,0,1-1.69.74L16,29.45,13.36,14.21Z"/><path class="cls-2" d="M60,50.93H4a2,2,0,0,0,0,4H60A2,2,0,0,0,60,50.93Z"/></g></svg>