<?xml version="1.0" encoding="iso-8859-1"?>
<!-- Generator: Adobe Illustrator 23.1.1, SVG Export Plug-In . SVG Version: 6.00 Build 0)  -->
<svg version="1.1" id="_x31_-outline-expand" xmlns="http://www.w3.org/2000/svg" xmlns:xlink="http://www.w3.org/1999/xlink"
	 x="0px" y="0px" viewBox="0 0 64 64" style="enable-background:new 0 0 64 64;" xml:space="preserve">
<circle style="fill:#62C4C3;" cx="50" cy="9" r="6"/>
<polygon style="fill:#42A5B2;" points="46,36 43,49 37,58 42,62 50,51 53,41 "/>
<polygon style="fill:#42A5B2;" points="44,22 37,31 41,35 48,26 "/>
<path style="fill:#62C4C3;" d="M57,36V19c0-2.209-1.791-4-4-4h-6c-2.209,0-4,1.791-4,4v12.029c0,3.183,1.264,6.235,3.515,8.485
	L55,48v14h6V46L57,36z"/>
<polygon style="fill:#42A5B2;" points="57,36 57,32.264 51.536,29.532 47.828,21.187 44.172,22.812 48.464,32.468 57.368,36.92 "/>
<rect x="25.386" y="36.018" transform="matrix(0.7071 -0.7071 0.7071 0.7071 -16.3583 34.5427)" style="fill:#3A4249;" width="16.263" height="2"/>
<path style="fill:#EF941D;" d="M13.972,59.392l-9.899-9.899l15.556-15.557c0.781-0.781,2.048-0.781,2.828,0l7.072,7.071
	c0.78,0.781,0.78,2.048,0,2.829L13.972,59.392z"/>
<path style="fill:#E0C494;" d="M4.072,49.493l-1.768,1.768c-0.586,0.586-0.586,1.535,0,2.121c0.586,0.586,1.536,0.586,2.122,0
	l1.768-1.768L4.072,49.493z"/>
<path style="fill:#E0C494;" d="M11.851,57.271l-1.768,1.768c-0.586,0.586-0.586,1.535,0,2.121s1.536,0.586,2.122,0l1.767-1.768
	L11.851,57.271z"/>
<rect x="13.964" y="45.5" transform="matrix(0.7071 -0.7071 0.7071 0.7071 -27.7548 25.9939)" style="fill:#3A4249;" width="7.071" height="2"/>
<rect x="11" y="3" style="fill:#EFBC2E;" width="2" height="4"/>
<rect x="10" y="2" style="fill:#EFBC2E;" width="4" height="2"/>
<rect x="4.937" y="6.5" transform="matrix(0.5 -0.866 0.866 0.5 -4.3925 9.3917)" style="fill:#EFBC2E;" width="2" height="4"/>
<rect x="2.206" y="6.5" transform="matrix(0.4999 -0.8661 0.8661 0.4999 -4.3924 7.3929)" style="fill:#EFBC2E;" width="4" height="2"/>
<rect x="3.938" y="14.5" transform="matrix(0.8661 -0.4999 0.4999 0.8661 -6.9536 5.0442)" style="fill:#EFBC2E;" width="4" height="2"/>
<rect x="3.205" y="14.5" transform="matrix(0.866 -0.5 0.5 0.866 -7.6869 4.3137)" style="fill:#EFBC2E;" width="2" height="4"/>
<rect x="11" y="17" style="fill:#EFBC2E;" width="2" height="4"/>
<rect x="10" y="20" style="fill:#EFBC2E;" width="4" height="2"/>
<rect x="17.062" y="13.5" transform="matrix(0.5 -0.866 0.866 0.5 -4.3924 23.3919)" style="fill:#EFBC2E;" width="2" height="4"/>
<rect x="17.795" y="15.5" transform="matrix(0.4999 -0.8661 0.8661 0.4999 -4.3914 25.3947)" style="fill:#EFBC2E;" width="4" height="2"/>
<rect x="16.063" y="7.5" transform="matrix(0.8661 -0.4999 0.4999 0.8661 -1.8302 10.1682)" style="fill:#EFBC2E;" width="4" height="2"/>
<rect x="18.794" y="5.5" transform="matrix(0.866 -0.5 0.5 0.866 -1.0979 10.9026)" style="fill:#EFBC2E;" width="2" height="4"/>
<polygon style="fill:#3A4249;" points="36.707,16.707 35.293,15.293 38.586,12 35.293,8.707 36.707,7.293 41.414,12 "/>
<rect x="30" y="11" style="fill:#3A4249;" width="10" height="2"/>
<rect x="26" y="11" style="fill:#3A4249;" width="2" height="2"/>
<rect x="22" y="11" style="fill:#3A4249;" width="2" height="2"/>
<rect x="21.586" y="40" transform="matrix(0.7071 -0.7071 0.7071 0.7071 -22.2548 28.2721)" style="fill:#3A4249;" width="2.828" height="2"/>
<circle style="fill:#AA494A;" cx="12" cy="12" r="6"/>
<circle style="fill:#D36767;" cx="12" cy="12" r="4"/>
<polygon style="fill:#62C4C3;" points="46,22 50,31 58,35 61,30 54,26 52,20 48,19 "/>
</svg>
