<svg xmlns="http://www.w3.org/2000/svg" viewBox="0 0 512 512"><title>passenger</title><g id="passenger"><path d="M336.53,64a75.19,75.19,0,0,0-8.07,21.61,43.75,43.75,0,0,0,17.84,45.05,138.56,138.56,0,0,0,24,12.76,23.35,23.35,0,0,0,31.44-15l9.39-31.89a41,41,0,0,0-26-50.35C366.78,39.86,346.19,47.13,336.53,64Z" id="id_101" style="fill: rgb(219, 200, 79);"></path><path d="M416.53,443.22l-61-148.16,17.33-95.26A37.7,37.7,0,0,0,369.44,176c-6.44-12.64-20.31-29.39-48.93-30.73a25.47,25.47,0,0,0-7,.24,29.17,29.17,0,0,0-19.83,13.33l-68,107a15.44,15.44,0,0,0-.72,15.3L197.29,320.7,151.4,288.42a22.78,22.78,0,0,0-31.74,5.52L76.44,355.37a45.44,45.44,0,0,0,11,63.32l10.78,7.59a31.32,31.32,0,1,0,54.46-8.37L243.07,289a15.4,15.4,0,0,0,8.29-5.88l55.54-78-15.08,66.22A35.36,35.36,0,0,0,295.75,297l96.78,165.94a10.42,10.42,0,0,0,9,5.18H434a5.32,5.32,0,0,0,4.78-7.64A30.71,30.71,0,0,0,416.53,443.22Zm-273-6.47a15.84,15.84,0,1,1-31.67,0c0-.28,0-.56,0-.83A15.81,15.81,0,0,1,127,421c.23,0,.46,0,.7,0A15.94,15.94,0,0,1,142.83,432,15.59,15.59,0,0,1,143.56,436.75Z" id="id_102" style="fill: rgb(217, 199, 78);"></path><path d="M298.92,327.52a5.38,5.38,0,0,0-9.76,1.62c-9.49,39.87-37.08,79.88-53,97.25A14.83,14.83,0,0,0,235.11,445l13.54,19a9.65,9.65,0,0,0,7.87,4.07H268a3.79,3.79,0,0,0,3.75-4.22,60,60,0,0,0-6.87-21.45c29.21-30.58,44.94-60.5,51.61-75.31a14.2,14.2,0,0,0-1-13.48Z" id="id_103" style="fill: rgb(219, 200, 79);"></path><path d="M385.43,229.52a3.69,3.69,0,0,0-6.21,1.9L374,257.53a5.77,5.77,0,0,0,1.83,5.44l45.26,40.24a13.66,13.66,0,0,0,18.68-19.92Z" id="id_104" style="fill: rgb(219, 200, 75);"></path></g></svg>